# xmcd CD database file
#
# Track frame offsets:
#	150
#	96486
#	177797
#	253837
#
# Disc length: 3781 seconds
#
# Revision: 0
# Processed by: cddbd v1.5.2PL0 Copyright (c) Steve Scherf et al.
# Submitted via: CDex 1.70beta1
#
DISCID=310ec304
DTITLE=Sylvie Courvoisier - Lonelyville
DYEAR=2007
DGENRE=Jazz
TTITLE0=Texturologie
TTITLE1=Cosmorama
TTITLE2=Contraste 2005
TTITLE3=Lonelyville
EXTD=YEAR: 2007
EXTT0=
EXTT1=
EXTT2=
EXTT3=
PLAYORDER=
